<mxfile host="app.diagrams.net" agent="Mozilla/5.0 (Windows NT 10.0; Win64; x64) AppleWebKit/537.36 (KHTML, like Gecko) Chrome/134.0.0.0 Safari/537.36" version="26.1.0">
  <diagram name="Side-1" id="WenHCYtQ5Q7TB_oUiTzX">
    <mxGraphModel dx="2389" dy="1979" grid="1" gridSize="10" guides="1" tooltips="1" connect="1" arrows="1" fold="1" page="1" pageScale="1" pageWidth="827" pageHeight="1169" math="0" shadow="0">
      <root>
        <mxCell id="0" />
        <mxCell id="1" parent="0" />
        <mxCell id="SRQfMVWUsRB8W6Q9aUgF-1" value="&amp;lt;&amp;lt;aggregate&amp;gt;&amp;gt;&lt;div&gt;Event&lt;/div&gt;" style="swimlane;html=1;fontStyle=1;align=center;verticalAlign=top;childLayout=stackLayout;horizontal=1;startSize=37;horizontalStack=0;resizeParent=1;resizeLast=0;collapsible=1;marginBottom=0;swimlaneFillColor=#ffffff;rounded=0;shadow=0;comic=0;labelBackgroundColor=none;strokeWidth=1;fillColor=#d5e8d4;fontFamily=Verdana;fontSize=12;strokeColor=#82b366;" parent="1" vertex="1">
          <mxGeometry x="260" y="300" width="530" height="670" as="geometry" />
        </mxCell>
        <mxCell id="SRQfMVWUsRB8W6Q9aUgF-2" value="+ id: EventId" style="text;html=1;strokeColor=#82b366;fillColor=#d5e8d4;align=left;verticalAlign=top;spacingLeft=4;spacingRight=4;whiteSpace=wrap;overflow=hidden;rotatable=0;points=[[0,0.5],[1,0.5]];portConstraint=eastwest;" parent="SRQfMVWUsRB8W6Q9aUgF-1" vertex="1">
          <mxGeometry y="37" width="530" height="26" as="geometry" />
        </mxCell>
        <mxCell id="SRQfMVWUsRB8W6Q9aUgF-3" value="- title: EventTitle" style="text;html=1;strokeColor=#82b366;fillColor=#d5e8d4;align=left;verticalAlign=top;spacingLeft=4;spacingRight=4;whiteSpace=wrap;overflow=hidden;rotatable=0;points=[[0,0.5],[1,0.5]];portConstraint=eastwest;" parent="SRQfMVWUsRB8W6Q9aUgF-1" vertex="1">
          <mxGeometry y="63" width="530" height="26" as="geometry" />
        </mxCell>
        <mxCell id="SRQfMVWUsRB8W6Q9aUgF-4" value="- description: EventDescription" style="text;html=1;strokeColor=#82b366;fillColor=#d5e8d4;align=left;verticalAlign=top;spacingLeft=4;spacingRight=4;whiteSpace=wrap;overflow=hidden;rotatable=0;points=[[0,0.5],[1,0.5]];portConstraint=eastwest;" parent="SRQfMVWUsRB8W6Q9aUgF-1" vertex="1">
          <mxGeometry y="89" width="530" height="26" as="geometry" />
        </mxCell>
        <mxCell id="SRQfMVWUsRB8W6Q9aUgF-5" value="- eventTime: EventTime" style="text;html=1;strokeColor=#82b366;fillColor=#d5e8d4;align=left;verticalAlign=top;spacingLeft=4;spacingRight=4;whiteSpace=wrap;overflow=hidden;rotatable=0;points=[[0,0.5],[1,0.5]];portConstraint=eastwest;" parent="SRQfMVWUsRB8W6Q9aUgF-1" vertex="1">
          <mxGeometry y="115" width="530" height="26" as="geometry" />
        </mxCell>
        <mxCell id="SRQfMVWUsRB8W6Q9aUgF-7" value="- visibility: EventVisibility" style="text;html=1;strokeColor=#82b366;fillColor=#d5e8d4;align=left;verticalAlign=top;spacingLeft=4;spacingRight=4;whiteSpace=wrap;overflow=hidden;rotatable=0;points=[[0,0.5],[1,0.5]];portConstraint=eastwest;" parent="SRQfMVWUsRB8W6Q9aUgF-1" vertex="1">
          <mxGeometry y="141" width="530" height="26" as="geometry" />
        </mxCell>
        <mxCell id="SRQfMVWUsRB8W6Q9aUgF-8" value="- status: EventStatus" style="text;html=1;strokeColor=#82b366;fillColor=#d5e8d4;align=left;verticalAlign=top;spacingLeft=4;spacingRight=4;whiteSpace=wrap;overflow=hidden;rotatable=0;points=[[0,0.5],[1,0.5]];portConstraint=eastwest;" parent="SRQfMVWUsRB8W6Q9aUgF-1" vertex="1">
          <mxGeometry y="167" width="530" height="29" as="geometry" />
        </mxCell>
        <mxCell id="SRQfMVWUsRB8W6Q9aUgF-9" value="- maxGuests: EventMaxGuests" style="text;html=1;strokeColor=#82b366;fillColor=#d5e8d4;align=left;verticalAlign=top;spacingLeft=4;spacingRight=4;whiteSpace=wrap;overflow=hidden;rotatable=0;points=[[0,0.5],[1,0.5]];portConstraint=eastwest;" parent="SRQfMVWUsRB8W6Q9aUgF-1" vertex="1">
          <mxGeometry y="196" width="530" height="26" as="geometry" />
        </mxCell>
        <mxCell id="SRQfMVWUsRB8W6Q9aUgF-10" value="- guestList: IList&amp;lt;GuestList&amp;gt;" style="text;html=1;strokeColor=#82b366;fillColor=#d5e8d4;align=left;verticalAlign=top;spacingLeft=4;spacingRight=4;whiteSpace=wrap;overflow=hidden;rotatable=0;points=[[0,0.5],[1,0.5]];portConstraint=eastwest;" parent="SRQfMVWUsRB8W6Q9aUgF-1" vertex="1">
          <mxGeometry y="222" width="530" height="26" as="geometry" />
        </mxCell>
        <mxCell id="SRQfMVWUsRB8W6Q9aUgF-22" value="- locationId: LocationId" style="text;html=1;strokeColor=#82b366;fillColor=#d5e8d4;align=left;verticalAlign=top;spacingLeft=4;spacingRight=4;whiteSpace=wrap;overflow=hidden;rotatable=0;points=[[0,0.5],[1,0.5]];portConstraint=eastwest;" parent="SRQfMVWUsRB8W6Q9aUgF-1" vertex="1">
          <mxGeometry y="248" width="530" height="26" as="geometry" />
        </mxCell>
        <mxCell id="SRQfMVWUsRB8W6Q9aUgF-11" value="" style="line;html=1;strokeWidth=1;fillColor=none;align=left;verticalAlign=middle;spacingTop=-1;spacingLeft=3;spacingRight=3;rotatable=0;labelPosition=right;points=[];portConstraint=eastwest;" parent="SRQfMVWUsRB8W6Q9aUgF-1" vertex="1">
          <mxGeometry y="274" width="530" height="10" as="geometry" />
        </mxCell>
        <mxCell id="SRQfMVWUsRB8W6Q9aUgF-12" value="+ UpdateTitle(eventTitle : EventTitle) : Result&amp;lt;None&amp;gt;" style="text;html=1;strokeColor=#82b366;fillColor=#d5e8d4;align=left;verticalAlign=top;spacingLeft=4;spacingRight=4;whiteSpace=wrap;overflow=hidden;rotatable=0;points=[[0,0.5],[1,0.5]];portConstraint=eastwest;" parent="SRQfMVWUsRB8W6Q9aUgF-1" vertex="1">
          <mxGeometry y="284" width="530" height="32" as="geometry" />
        </mxCell>
        <mxCell id="SRQfMVWUsRB8W6Q9aUgF-13" value="+ UpdateDescription(eventDescription : EventDescription) : Result&amp;lt;None&amp;gt;" style="text;html=1;strokeColor=#82b366;fillColor=#d5e8d4;align=left;verticalAlign=top;spacingLeft=4;spacingRight=4;whiteSpace=wrap;overflow=hidden;rotatable=0;points=[[0,0.5],[1,0.5]];portConstraint=eastwest;" parent="SRQfMVWUsRB8W6Q9aUgF-1" vertex="1">
          <mxGeometry y="316" width="530" height="32" as="geometry" />
        </mxCell>
        <mxCell id="SRQfMVWUsRB8W6Q9aUgF-14" value="+ UpdateTime(eventTime : EventTime) : Result&amp;lt;None&amp;gt;" style="text;html=1;strokeColor=#82b366;fillColor=#d5e8d4;align=left;verticalAlign=top;spacingLeft=4;spacingRight=4;whiteSpace=wrap;overflow=hidden;rotatable=0;points=[[0,0.5],[1,0.5]];portConstraint=eastwest;" parent="SRQfMVWUsRB8W6Q9aUgF-1" vertex="1">
          <mxGeometry y="348" width="530" height="32" as="geometry" />
        </mxCell>
        <mxCell id="SRQfMVWUsRB8W6Q9aUgF-16" value="+ MakePublic() : Result&amp;lt;None&amp;gt;" style="text;html=1;strokeColor=#82b366;fillColor=#d5e8d4;align=left;verticalAlign=top;spacingLeft=4;spacingRight=4;whiteSpace=wrap;overflow=hidden;rotatable=0;points=[[0,0.5],[1,0.5]];portConstraint=eastwest;" parent="SRQfMVWUsRB8W6Q9aUgF-1" vertex="1">
          <mxGeometry y="380" width="530" height="32" as="geometry" />
        </mxCell>
        <mxCell id="SRQfMVWUsRB8W6Q9aUgF-23" value="+ MakePrivate() : Result&amp;lt;None&amp;gt;" style="text;html=1;strokeColor=#82b366;fillColor=#d5e8d4;align=left;verticalAlign=top;spacingLeft=4;spacingRight=4;whiteSpace=wrap;overflow=hidden;rotatable=0;points=[[0,0.5],[1,0.5]];portConstraint=eastwest;" parent="SRQfMVWUsRB8W6Q9aUgF-1" vertex="1">
          <mxGeometry y="412" width="530" height="32" as="geometry" />
        </mxCell>
        <mxCell id="SRQfMVWUsRB8W6Q9aUgF-24" value="+ SetReadyStatus() : Result&amp;lt;None&amp;gt;" style="text;html=1;strokeColor=#82b366;fillColor=#d5e8d4;align=left;verticalAlign=top;spacingLeft=4;spacingRight=4;whiteSpace=wrap;overflow=hidden;rotatable=0;points=[[0,0.5],[1,0.5]];portConstraint=eastwest;" parent="SRQfMVWUsRB8W6Q9aUgF-1" vertex="1">
          <mxGeometry y="444" width="530" height="32" as="geometry" />
        </mxCell>
        <mxCell id="SRQfMVWUsRB8W6Q9aUgF-25" value="+ SetActiveStatus() : Result&amp;lt;None&amp;gt;" style="text;html=1;strokeColor=#82b366;fillColor=#d5e8d4;align=left;verticalAlign=top;spacingLeft=4;spacingRight=4;whiteSpace=wrap;overflow=hidden;rotatable=0;points=[[0,0.5],[1,0.5]];portConstraint=eastwest;" parent="SRQfMVWUsRB8W6Q9aUgF-1" vertex="1">
          <mxGeometry y="476" width="530" height="32" as="geometry" />
        </mxCell>
        <mxCell id="SRQfMVWUsRB8W6Q9aUgF-17" value="+ SetCancelledStatus() : Result&amp;lt;None&amp;gt;" style="text;html=1;strokeColor=#82b366;fillColor=#d5e8d4;align=left;verticalAlign=top;spacingLeft=4;spacingRight=4;whiteSpace=wrap;overflow=hidden;rotatable=0;points=[[0,0.5],[1,0.5]];portConstraint=eastwest;" parent="SRQfMVWUsRB8W6Q9aUgF-1" vertex="1">
          <mxGeometry y="508" width="530" height="32" as="geometry" />
        </mxCell>
        <mxCell id="SRQfMVWUsRB8W6Q9aUgF-18" value="+ UpdateMaxGuests(eventMaxGuests : EventMaxGuests) : Result&amp;lt;None&amp;gt;" style="text;html=1;strokeColor=#82b366;fillColor=#d5e8d4;align=left;verticalAlign=top;spacingLeft=4;spacingRight=4;whiteSpace=wrap;overflow=hidden;rotatable=0;points=[[0,0.5],[1,0.5]];portConstraint=eastwest;" parent="SRQfMVWUsRB8W6Q9aUgF-1" vertex="1">
          <mxGeometry y="540" width="530" height="32" as="geometry" />
        </mxCell>
        <mxCell id="SRQfMVWUsRB8W6Q9aUgF-19" value="+ AssignGuestToGuestList(guest : Guest) : Result&amp;lt;None&amp;gt;" style="text;html=1;strokeColor=#82b366;fillColor=#d5e8d4;align=left;verticalAlign=top;spacingLeft=4;spacingRight=4;whiteSpace=wrap;overflow=hidden;rotatable=0;points=[[0,0.5],[1,0.5]];portConstraint=eastwest;" parent="SRQfMVWUsRB8W6Q9aUgF-1" vertex="1">
          <mxGeometry y="572" width="530" height="32" as="geometry" />
        </mxCell>
        <mxCell id="SRQfMVWUsRB8W6Q9aUgF-20" value="+ AssignGuestToInvite(guest : Guest) : Result&amp;lt;None&amp;gt;" style="text;html=1;strokeColor=#82b366;fillColor=#d5e8d4;align=left;verticalAlign=top;spacingLeft=4;spacingRight=4;whiteSpace=wrap;overflow=hidden;rotatable=0;points=[[0,0.5],[1,0.5]];portConstraint=eastwest;" parent="SRQfMVWUsRB8W6Q9aUgF-1" vertex="1">
          <mxGeometry y="604" width="530" height="32" as="geometry" />
        </mxCell>
        <mxCell id="SRQfMVWUsRB8W6Q9aUgF-21" value="+ AssignGuestToRequest(guest : Guest) : Result&amp;lt;None&amp;gt;" style="text;html=1;strokeColor=#82b366;fillColor=#d5e8d4;align=left;verticalAlign=top;spacingLeft=4;spacingRight=4;whiteSpace=wrap;overflow=hidden;rotatable=0;points=[[0,0.5],[1,0.5]];portConstraint=eastwest;" parent="SRQfMVWUsRB8W6Q9aUgF-1" vertex="1">
          <mxGeometry y="636" width="530" height="32" as="geometry" />
        </mxCell>
        <mxCell id="SRQfMVWUsRB8W6Q9aUgF-26" style="edgeStyle=orthogonalEdgeStyle;rounded=0;orthogonalLoop=1;jettySize=auto;html=1;entryX=0;entryY=0.5;entryDx=0;entryDy=0;endArrow=none;startFill=1;startArrow=classic;" parent="1" source="SRQfMVWUsRB8W6Q9aUgF-27" target="SRQfMVWUsRB8W6Q9aUgF-44" edge="1">
          <mxGeometry relative="1" as="geometry" />
        </mxCell>
        <mxCell id="SRQfMVWUsRB8W6Q9aUgF-27" value="&amp;lt;&amp;lt;enum&amp;gt;&amp;gt;&lt;div&gt;EnumStatus&lt;/div&gt;" style="swimlane;html=1;fontStyle=1;align=center;verticalAlign=top;childLayout=stackLayout;horizontal=1;startSize=37;horizontalStack=0;resizeParent=1;resizeLast=0;collapsible=1;marginBottom=0;swimlaneFillColor=#ffffff;rounded=0;shadow=0;comic=0;labelBackgroundColor=none;strokeWidth=1;fontFamily=Verdana;fontSize=12;fillColor=#e1d5e7;strokeColor=#9673a6;" parent="1" vertex="1">
          <mxGeometry x="-570" y="576" width="160" height="141" as="geometry" />
        </mxCell>
        <mxCell id="SRQfMVWUsRB8W6Q9aUgF-28" value="+ DRAFT" style="text;html=1;strokeColor=#9673a6;fillColor=#e1d5e7;align=left;verticalAlign=top;spacingLeft=4;spacingRight=4;whiteSpace=wrap;overflow=hidden;rotatable=0;points=[[0,0.5],[1,0.5]];portConstraint=eastwest;" parent="SRQfMVWUsRB8W6Q9aUgF-27" vertex="1">
          <mxGeometry y="37" width="160" height="26" as="geometry" />
        </mxCell>
        <mxCell id="SRQfMVWUsRB8W6Q9aUgF-29" value="+ READY" style="text;html=1;strokeColor=#9673a6;fillColor=#e1d5e7;align=left;verticalAlign=top;spacingLeft=4;spacingRight=4;whiteSpace=wrap;overflow=hidden;rotatable=0;points=[[0,0.5],[1,0.5]];portConstraint=eastwest;" parent="SRQfMVWUsRB8W6Q9aUgF-27" vertex="1">
          <mxGeometry y="63" width="160" height="26" as="geometry" />
        </mxCell>
        <mxCell id="SRQfMVWUsRB8W6Q9aUgF-30" value="+ ACTIVE" style="text;html=1;strokeColor=#9673a6;fillColor=#e1d5e7;align=left;verticalAlign=top;spacingLeft=4;spacingRight=4;whiteSpace=wrap;overflow=hidden;rotatable=0;points=[[0,0.5],[1,0.5]];portConstraint=eastwest;" parent="SRQfMVWUsRB8W6Q9aUgF-27" vertex="1">
          <mxGeometry y="89" width="160" height="26" as="geometry" />
        </mxCell>
        <mxCell id="SRQfMVWUsRB8W6Q9aUgF-31" value="+ CANCELLED" style="text;html=1;strokeColor=#9673a6;fillColor=#e1d5e7;align=left;verticalAlign=top;spacingLeft=4;spacingRight=4;whiteSpace=wrap;overflow=hidden;rotatable=0;points=[[0,0.5],[1,0.5]];portConstraint=eastwest;" parent="SRQfMVWUsRB8W6Q9aUgF-27" vertex="1">
          <mxGeometry y="115" width="160" height="26" as="geometry" />
        </mxCell>
        <mxCell id="SRQfMVWUsRB8W6Q9aUgF-32" value="&amp;lt;&amp;lt;enum&amp;gt;&amp;gt;&lt;div&gt;EnumVisibility&lt;/div&gt;" style="swimlane;html=1;fontStyle=1;align=center;verticalAlign=top;childLayout=stackLayout;horizontal=1;startSize=37;horizontalStack=0;resizeParent=1;resizeLast=0;collapsible=1;marginBottom=0;swimlaneFillColor=#ffffff;rounded=0;shadow=0;comic=0;labelBackgroundColor=none;strokeWidth=1;fontFamily=Verdana;fontSize=12;fillColor=#e1d5e7;strokeColor=#9673a6;" parent="1" vertex="1">
          <mxGeometry x="-570" y="430" width="160" height="90" as="geometry" />
        </mxCell>
        <mxCell id="SRQfMVWUsRB8W6Q9aUgF-33" value="+ PUBLIC" style="text;html=1;strokeColor=#9673a6;fillColor=#e1d5e7;align=left;verticalAlign=top;spacingLeft=4;spacingRight=4;whiteSpace=wrap;overflow=hidden;rotatable=0;points=[[0,0.5],[1,0.5]];portConstraint=eastwest;" parent="SRQfMVWUsRB8W6Q9aUgF-32" vertex="1">
          <mxGeometry y="37" width="160" height="26" as="geometry" />
        </mxCell>
        <mxCell id="SRQfMVWUsRB8W6Q9aUgF-34" value="+ PRIVATE" style="text;html=1;strokeColor=#9673a6;fillColor=#e1d5e7;align=left;verticalAlign=top;spacingLeft=4;spacingRight=4;whiteSpace=wrap;overflow=hidden;rotatable=0;points=[[0,0.5],[1,0.5]];portConstraint=eastwest;" parent="SRQfMVWUsRB8W6Q9aUgF-32" vertex="1">
          <mxGeometry y="63" width="160" height="26" as="geometry" />
        </mxCell>
        <mxCell id="SRQfMVWUsRB8W6Q9aUgF-35" value="1" style="text;html=1;align=center;verticalAlign=middle;resizable=0;points=[];autosize=1;strokeColor=none;fillColor=none;" parent="1" vertex="1">
          <mxGeometry x="-410" y="443.5" width="30" height="30" as="geometry" />
        </mxCell>
        <mxCell id="SRQfMVWUsRB8W6Q9aUgF-36" value="1" style="text;html=1;align=center;verticalAlign=middle;resizable=0;points=[];autosize=1;strokeColor=none;fillColor=none;" parent="1" vertex="1">
          <mxGeometry x="-410" y="615" width="30" height="30" as="geometry" />
        </mxCell>
        <mxCell id="SRQfMVWUsRB8W6Q9aUgF-37" value="&amp;lt;&amp;lt;value&amp;gt;&amp;gt;&lt;div&gt;EventTitle&lt;/div&gt;" style="swimlane;html=1;fontStyle=1;align=center;verticalAlign=top;childLayout=stackLayout;horizontal=1;startSize=37;horizontalStack=0;resizeParent=1;resizeLast=0;collapsible=1;marginBottom=0;swimlaneFillColor=#ffffff;rounded=0;shadow=0;comic=0;labelBackgroundColor=none;strokeWidth=1;fontFamily=Verdana;fontSize=12;fillColor=#fff2cc;strokeColor=#d6b656;" parent="1" vertex="1">
          <mxGeometry x="-180" y="342" width="170" height="63" as="geometry" />
        </mxCell>
        <mxCell id="SRQfMVWUsRB8W6Q9aUgF-38" value="+ Value: string" style="text;html=1;strokeColor=#d6b656;fillColor=#fff2cc;align=left;verticalAlign=top;spacingLeft=4;spacingRight=4;whiteSpace=wrap;overflow=hidden;rotatable=0;points=[[0,0.5],[1,0.5]];portConstraint=eastwest;" parent="SRQfMVWUsRB8W6Q9aUgF-37" vertex="1">
          <mxGeometry y="37" width="170" height="26" as="geometry" />
        </mxCell>
        <mxCell id="SRQfMVWUsRB8W6Q9aUgF-39" value="&amp;lt;&amp;lt;value&amp;gt;&amp;gt;&lt;div&gt;EventDescription&lt;/div&gt;" style="swimlane;html=1;fontStyle=1;align=center;verticalAlign=top;childLayout=stackLayout;horizontal=1;startSize=37;horizontalStack=0;resizeParent=1;resizeLast=0;collapsible=1;marginBottom=0;swimlaneFillColor=#ffffff;rounded=0;shadow=0;comic=0;labelBackgroundColor=none;strokeWidth=1;fontFamily=Verdana;fontSize=12;fillColor=#fff2cc;strokeColor=#d6b656;" parent="1" vertex="1">
          <mxGeometry x="-180" y="420" width="170" height="63" as="geometry" />
        </mxCell>
        <mxCell id="SRQfMVWUsRB8W6Q9aUgF-40" value="+ Value: string" style="text;html=1;strokeColor=#d6b656;fillColor=#fff2cc;align=left;verticalAlign=top;spacingLeft=4;spacingRight=4;whiteSpace=wrap;overflow=hidden;rotatable=0;points=[[0,0.5],[1,0.5]];portConstraint=eastwest;" parent="SRQfMVWUsRB8W6Q9aUgF-39" vertex="1">
          <mxGeometry y="37" width="170" height="26" as="geometry" />
        </mxCell>
        <mxCell id="SRQfMVWUsRB8W6Q9aUgF-41" style="edgeStyle=orthogonalEdgeStyle;rounded=0;orthogonalLoop=1;jettySize=auto;html=1;entryX=1;entryY=0.5;entryDx=0;entryDy=0;exitX=0;exitY=0.5;exitDx=0;exitDy=0;" parent="1" source="SRQfMVWUsRB8W6Q9aUgF-42" target="SRQfMVWUsRB8W6Q9aUgF-33" edge="1">
          <mxGeometry relative="1" as="geometry">
            <Array as="points">
              <mxPoint x="-260" y="647" />
              <mxPoint x="-260" y="480" />
            </Array>
          </mxGeometry>
        </mxCell>
        <mxCell id="SRQfMVWUsRB8W6Q9aUgF-42" value="&amp;lt;&amp;lt;value&amp;gt;&amp;gt;&lt;div&gt;EventVisibility&lt;/div&gt;" style="swimlane;html=1;fontStyle=1;align=center;verticalAlign=top;childLayout=stackLayout;horizontal=1;startSize=37;horizontalStack=0;resizeParent=1;resizeLast=0;collapsible=1;marginBottom=0;swimlaneFillColor=#ffffff;rounded=0;shadow=0;comic=0;labelBackgroundColor=none;strokeWidth=1;fontFamily=Verdana;fontSize=12;fillColor=#fff2cc;strokeColor=#d6b656;" parent="1" vertex="1">
          <mxGeometry x="-180" y="615" width="170" height="63" as="geometry" />
        </mxCell>
        <mxCell id="SRQfMVWUsRB8W6Q9aUgF-43" value="+ Enumeration: enumVisibility" style="text;html=1;strokeColor=#d6b656;fillColor=#fff2cc;align=left;verticalAlign=top;spacingLeft=4;spacingRight=4;whiteSpace=wrap;overflow=hidden;rotatable=0;points=[[0,0.5],[1,0.5]];portConstraint=eastwest;" parent="SRQfMVWUsRB8W6Q9aUgF-42" vertex="1">
          <mxGeometry y="37" width="170" height="26" as="geometry" />
        </mxCell>
        <mxCell id="SRQfMVWUsRB8W6Q9aUgF-44" value="&amp;lt;&amp;lt;value&amp;gt;&amp;gt;&lt;div&gt;EventStatus&lt;/div&gt;" style="swimlane;html=1;fontStyle=1;align=center;verticalAlign=top;childLayout=stackLayout;horizontal=1;startSize=37;horizontalStack=0;resizeParent=1;resizeLast=0;collapsible=1;marginBottom=0;swimlaneFillColor=#ffffff;rounded=0;shadow=0;comic=0;labelBackgroundColor=none;strokeWidth=1;fontFamily=Verdana;fontSize=12;fillColor=#fff2cc;strokeColor=#d6b656;" parent="1" vertex="1">
          <mxGeometry x="-180" y="694" width="170" height="63" as="geometry" />
        </mxCell>
        <mxCell id="SRQfMVWUsRB8W6Q9aUgF-45" value="+ Enumeration: enumStatus" style="text;html=1;strokeColor=#d6b656;fillColor=#fff2cc;align=left;verticalAlign=top;spacingLeft=4;spacingRight=4;whiteSpace=wrap;overflow=hidden;rotatable=0;points=[[0,0.5],[1,0.5]];portConstraint=eastwest;" parent="SRQfMVWUsRB8W6Q9aUgF-44" vertex="1">
          <mxGeometry y="37" width="170" height="26" as="geometry" />
        </mxCell>
        <mxCell id="SRQfMVWUsRB8W6Q9aUgF-46" value="&amp;lt;&amp;lt;value&amp;gt;&amp;gt;&lt;div&gt;EventMaxGuests&lt;/div&gt;" style="swimlane;html=1;fontStyle=1;align=center;verticalAlign=top;childLayout=stackLayout;horizontal=1;startSize=37;horizontalStack=0;resizeParent=1;resizeLast=0;collapsible=1;marginBottom=0;swimlaneFillColor=#ffffff;rounded=0;shadow=0;comic=0;labelBackgroundColor=none;strokeWidth=1;fontFamily=Verdana;fontSize=12;fillColor=#fff2cc;strokeColor=#d6b656;" parent="1" vertex="1">
          <mxGeometry x="-180" y="778" width="170" height="63" as="geometry" />
        </mxCell>
        <mxCell id="SRQfMVWUsRB8W6Q9aUgF-47" value="+ Value: int" style="text;html=1;strokeColor=#d6b656;fillColor=#fff2cc;align=left;verticalAlign=top;spacingLeft=4;spacingRight=4;whiteSpace=wrap;overflow=hidden;rotatable=0;points=[[0,0.5],[1,0.5]];portConstraint=eastwest;" parent="SRQfMVWUsRB8W6Q9aUgF-46" vertex="1">
          <mxGeometry y="37" width="170" height="26" as="geometry" />
        </mxCell>
        <mxCell id="SRQfMVWUsRB8W6Q9aUgF-48" value="1" style="text;html=1;align=center;verticalAlign=middle;resizable=0;points=[];autosize=1;strokeColor=none;fillColor=none;" parent="1" vertex="1">
          <mxGeometry x="-10" y="345" width="30" height="30" as="geometry" />
        </mxCell>
        <mxCell id="SRQfMVWUsRB8W6Q9aUgF-49" value="1" style="text;html=1;align=center;verticalAlign=middle;resizable=0;points=[];autosize=1;strokeColor=none;fillColor=none;" parent="1" vertex="1">
          <mxGeometry x="-10" y="420" width="30" height="30" as="geometry" />
        </mxCell>
        <mxCell id="SRQfMVWUsRB8W6Q9aUgF-50" value="1" style="text;html=1;align=center;verticalAlign=middle;resizable=0;points=[];autosize=1;strokeColor=none;fillColor=none;" parent="1" vertex="1">
          <mxGeometry x="-10" y="615" width="30" height="30" as="geometry" />
        </mxCell>
        <mxCell id="SRQfMVWUsRB8W6Q9aUgF-51" value="1" style="text;html=1;align=center;verticalAlign=middle;resizable=0;points=[];autosize=1;strokeColor=none;fillColor=none;" parent="1" vertex="1">
          <mxGeometry x="-10" y="694" width="30" height="30" as="geometry" />
        </mxCell>
        <mxCell id="SRQfMVWUsRB8W6Q9aUgF-52" value="1" style="text;html=1;align=center;verticalAlign=middle;resizable=0;points=[];autosize=1;strokeColor=none;fillColor=none;" parent="1" vertex="1">
          <mxGeometry x="-10" y="778" width="30" height="30" as="geometry" />
        </mxCell>
        <mxCell id="SRQfMVWUsRB8W6Q9aUgF-53" style="edgeStyle=orthogonalEdgeStyle;rounded=0;orthogonalLoop=1;jettySize=auto;html=1;entryX=1;entryY=0.5;entryDx=0;entryDy=0;" parent="1" source="SRQfMVWUsRB8W6Q9aUgF-8" target="SRQfMVWUsRB8W6Q9aUgF-44" edge="1">
          <mxGeometry relative="1" as="geometry">
            <mxPoint x="230" y="510" as="sourcePoint" />
          </mxGeometry>
        </mxCell>
        <mxCell id="SRQfMVWUsRB8W6Q9aUgF-54" style="edgeStyle=orthogonalEdgeStyle;rounded=0;orthogonalLoop=1;jettySize=auto;html=1;entryX=1;entryY=0.5;entryDx=0;entryDy=0;exitX=0;exitY=0.5;exitDx=0;exitDy=0;" parent="1" source="SRQfMVWUsRB8W6Q9aUgF-7" target="SRQfMVWUsRB8W6Q9aUgF-42" edge="1">
          <mxGeometry relative="1" as="geometry">
            <Array as="points">
              <mxPoint x="230" y="454" />
              <mxPoint x="230" y="470" />
              <mxPoint x="100" y="470" />
              <mxPoint x="100" y="647" />
            </Array>
            <mxPoint x="240" y="480" as="sourcePoint" />
          </mxGeometry>
        </mxCell>
        <mxCell id="SRQfMVWUsRB8W6Q9aUgF-55" style="edgeStyle=orthogonalEdgeStyle;rounded=0;orthogonalLoop=1;jettySize=auto;html=1;entryX=1;entryY=0.5;entryDx=0;entryDy=0;exitX=0;exitY=0.5;exitDx=0;exitDy=0;" parent="1" source="SRQfMVWUsRB8W6Q9aUgF-4" target="SRQfMVWUsRB8W6Q9aUgF-39" edge="1">
          <mxGeometry relative="1" as="geometry">
            <Array as="points">
              <mxPoint x="90" y="402" />
              <mxPoint x="90" y="452" />
            </Array>
            <mxPoint x="260" y="287" as="sourcePoint" />
          </mxGeometry>
        </mxCell>
        <mxCell id="SRQfMVWUsRB8W6Q9aUgF-57" style="edgeStyle=orthogonalEdgeStyle;rounded=0;orthogonalLoop=1;jettySize=auto;html=1;entryX=1;entryY=0.5;entryDx=0;entryDy=0;exitX=0;exitY=0.5;exitDx=0;exitDy=0;" parent="1" source="SRQfMVWUsRB8W6Q9aUgF-9" target="SRQfMVWUsRB8W6Q9aUgF-46" edge="1">
          <mxGeometry relative="1" as="geometry">
            <Array as="points">
              <mxPoint x="260" y="510" />
              <mxPoint x="160" y="510" />
              <mxPoint x="160" y="810" />
            </Array>
            <mxPoint x="220" y="535" as="sourcePoint" />
          </mxGeometry>
        </mxCell>
        <mxCell id="SRQfMVWUsRB8W6Q9aUgF-58" value="&amp;lt;&amp;lt;value&amp;gt;&amp;gt;&lt;div&gt;EventId&lt;/div&gt;" style="swimlane;html=1;fontStyle=1;align=center;verticalAlign=top;childLayout=stackLayout;horizontal=1;startSize=37;horizontalStack=0;resizeParent=1;resizeLast=0;collapsible=1;marginBottom=0;swimlaneFillColor=#ffffff;rounded=0;shadow=0;comic=0;labelBackgroundColor=none;strokeWidth=1;fontFamily=Verdana;fontSize=12;fillColor=#fff2cc;strokeColor=#d6b656;" parent="1" vertex="1">
          <mxGeometry x="460" y="160" width="160" height="63" as="geometry" />
        </mxCell>
        <mxCell id="SRQfMVWUsRB8W6Q9aUgF-59" value="+ Value: Guid" style="text;html=1;strokeColor=#d6b656;fillColor=#fff2cc;align=left;verticalAlign=top;spacingLeft=4;spacingRight=4;whiteSpace=wrap;overflow=hidden;rotatable=0;points=[[0,0.5],[1,0.5]];portConstraint=eastwest;" parent="SRQfMVWUsRB8W6Q9aUgF-58" vertex="1">
          <mxGeometry y="37" width="160" height="26" as="geometry" />
        </mxCell>
        <mxCell id="SRQfMVWUsRB8W6Q9aUgF-60" style="edgeStyle=orthogonalEdgeStyle;rounded=0;orthogonalLoop=1;jettySize=auto;html=1;entryX=0.5;entryY=1;entryDx=0;entryDy=0;" parent="1" source="SRQfMVWUsRB8W6Q9aUgF-2" target="SRQfMVWUsRB8W6Q9aUgF-58" edge="1">
          <mxGeometry relative="1" as="geometry" />
        </mxCell>
        <mxCell id="SRQfMVWUsRB8W6Q9aUgF-61" value="1" style="text;html=1;align=center;verticalAlign=middle;resizable=0;points=[];autosize=1;strokeColor=none;fillColor=none;" parent="1" vertex="1">
          <mxGeometry x="510" y="223" width="30" height="30" as="geometry" />
        </mxCell>
        <mxCell id="SRQfMVWUsRB8W6Q9aUgF-77" style="edgeStyle=orthogonalEdgeStyle;rounded=0;orthogonalLoop=1;jettySize=auto;html=1;" parent="1" source="SRQfMVWUsRB8W6Q9aUgF-62" target="SRQfMVWUsRB8W6Q9aUgF-73" edge="1">
          <mxGeometry relative="1" as="geometry" />
        </mxCell>
        <mxCell id="SRQfMVWUsRB8W6Q9aUgF-62" value="&amp;lt;&amp;lt;aggregate&amp;gt;&amp;gt;&lt;div&gt;Location&lt;/div&gt;" style="swimlane;html=1;fontStyle=1;align=center;verticalAlign=top;childLayout=stackLayout;horizontal=1;startSize=40;horizontalStack=0;resizeParent=1;resizeLast=0;collapsible=1;marginBottom=0;swimlaneFillColor=#ffffff;rounded=0;shadow=0;comic=0;labelBackgroundColor=none;strokeWidth=1;fillColor=#d5e8d4;fontFamily=Verdana;fontSize=12;strokeColor=#82b366;" parent="1" vertex="1">
          <mxGeometry x="1131" y="40" width="220" height="170" as="geometry" />
        </mxCell>
        <mxCell id="SRQfMVWUsRB8W6Q9aUgF-63" value="+ id: LocationId" style="text;html=1;strokeColor=#82b366;fillColor=#d5e8d4;align=left;verticalAlign=top;spacingLeft=4;spacingRight=4;whiteSpace=wrap;overflow=hidden;rotatable=0;points=[[0,0.5],[1,0.5]];portConstraint=eastwest;" parent="SRQfMVWUsRB8W6Q9aUgF-62" vertex="1">
          <mxGeometry y="40" width="220" height="26" as="geometry" />
        </mxCell>
        <mxCell id="SRQfMVWUsRB8W6Q9aUgF-64" value="- name: LocationName" style="text;html=1;strokeColor=#82b366;fillColor=#d5e8d4;align=left;verticalAlign=top;spacingLeft=4;spacingRight=4;whiteSpace=wrap;overflow=hidden;rotatable=0;points=[[0,0.5],[1,0.5]];portConstraint=eastwest;" parent="SRQfMVWUsRB8W6Q9aUgF-62" vertex="1">
          <mxGeometry y="66" width="220" height="26" as="geometry" />
        </mxCell>
        <mxCell id="SRQfMVWUsRB8W6Q9aUgF-65" value="- availableStart: DateTime" style="text;html=1;strokeColor=#82b366;fillColor=#d5e8d4;align=left;verticalAlign=top;spacingLeft=4;spacingRight=4;whiteSpace=wrap;overflow=hidden;rotatable=0;points=[[0,0.5],[1,0.5]];portConstraint=eastwest;" parent="SRQfMVWUsRB8W6Q9aUgF-62" vertex="1">
          <mxGeometry y="92" width="220" height="26" as="geometry" />
        </mxCell>
        <mxCell id="SRQfMVWUsRB8W6Q9aUgF-66" value="- availableEnd: DateTime" style="text;html=1;strokeColor=#82b366;fillColor=#d5e8d4;align=left;verticalAlign=top;spacingLeft=4;spacingRight=4;whiteSpace=wrap;overflow=hidden;rotatable=0;points=[[0,0.5],[1,0.5]];portConstraint=eastwest;" parent="SRQfMVWUsRB8W6Q9aUgF-62" vertex="1">
          <mxGeometry y="118" width="220" height="26" as="geometry" />
        </mxCell>
        <mxCell id="SRQfMVWUsRB8W6Q9aUgF-68" value="- capacity: int" style="text;html=1;strokeColor=#82b366;fillColor=#d5e8d4;align=left;verticalAlign=top;spacingLeft=4;spacingRight=4;whiteSpace=wrap;overflow=hidden;rotatable=0;points=[[0,0.5],[1,0.5]];portConstraint=eastwest;" parent="SRQfMVWUsRB8W6Q9aUgF-62" vertex="1">
          <mxGeometry y="144" width="220" height="26" as="geometry" />
        </mxCell>
        <mxCell id="SRQfMVWUsRB8W6Q9aUgF-70" value="&amp;lt;&amp;lt;value&amp;gt;&amp;gt;&lt;div&gt;LocationId&lt;/div&gt;" style="swimlane;html=1;fontStyle=1;align=center;verticalAlign=top;childLayout=stackLayout;horizontal=1;startSize=37;horizontalStack=0;resizeParent=1;resizeLast=0;collapsible=1;marginBottom=0;swimlaneFillColor=#ffffff;rounded=0;shadow=0;comic=0;labelBackgroundColor=none;strokeWidth=1;fontFamily=Verdana;fontSize=12;fillColor=#fff2cc;strokeColor=#d6b656;" parent="1" vertex="1">
          <mxGeometry x="1160" y="-100" width="160" height="63" as="geometry" />
        </mxCell>
        <mxCell id="SRQfMVWUsRB8W6Q9aUgF-71" value="+ Value: Guid" style="text;html=1;strokeColor=#d6b656;fillColor=#fff2cc;align=left;verticalAlign=top;spacingLeft=4;spacingRight=4;whiteSpace=wrap;overflow=hidden;rotatable=0;points=[[0,0.5],[1,0.5]];portConstraint=eastwest;" parent="SRQfMVWUsRB8W6Q9aUgF-70" vertex="1">
          <mxGeometry y="37" width="160" height="26" as="geometry" />
        </mxCell>
        <mxCell id="SRQfMVWUsRB8W6Q9aUgF-72" value="1" style="text;html=1;align=center;verticalAlign=middle;resizable=0;points=[];autosize=1;strokeColor=none;fillColor=none;" parent="1" vertex="1">
          <mxGeometry x="1241" y="-37" width="30" height="30" as="geometry" />
        </mxCell>
        <mxCell id="SRQfMVWUsRB8W6Q9aUgF-73" value="&amp;lt;&amp;lt;value&amp;gt;&amp;gt;&lt;div&gt;LocationName&lt;/div&gt;" style="swimlane;html=1;fontStyle=1;align=center;verticalAlign=top;childLayout=stackLayout;horizontal=1;startSize=37;horizontalStack=0;resizeParent=1;resizeLast=0;collapsible=1;marginBottom=0;swimlaneFillColor=#ffffff;rounded=0;shadow=0;comic=0;labelBackgroundColor=none;strokeWidth=1;fontFamily=Verdana;fontSize=12;fillColor=#fff2cc;strokeColor=#d6b656;" parent="1" vertex="1">
          <mxGeometry x="1440" y="58.5" width="160" height="63" as="geometry" />
        </mxCell>
        <mxCell id="SRQfMVWUsRB8W6Q9aUgF-74" value="+ Value: string" style="text;html=1;strokeColor=#d6b656;fillColor=#fff2cc;align=left;verticalAlign=top;spacingLeft=4;spacingRight=4;whiteSpace=wrap;overflow=hidden;rotatable=0;points=[[0,0.5],[1,0.5]];portConstraint=eastwest;" parent="SRQfMVWUsRB8W6Q9aUgF-73" vertex="1">
          <mxGeometry y="37" width="160" height="26" as="geometry" />
        </mxCell>
        <mxCell id="SRQfMVWUsRB8W6Q9aUgF-75" value="1" style="text;html=1;align=center;verticalAlign=middle;resizable=0;points=[];autosize=1;strokeColor=none;fillColor=none;" parent="1" vertex="1">
          <mxGeometry x="1410" y="58.5" width="30" height="30" as="geometry" />
        </mxCell>
        <mxCell id="SRQfMVWUsRB8W6Q9aUgF-78" style="edgeStyle=orthogonalEdgeStyle;rounded=0;orthogonalLoop=1;jettySize=auto;html=1;" parent="1" source="SRQfMVWUsRB8W6Q9aUgF-63" target="SRQfMVWUsRB8W6Q9aUgF-70" edge="1">
          <mxGeometry relative="1" as="geometry" />
        </mxCell>
        <mxCell id="SRQfMVWUsRB8W6Q9aUgF-79" style="edgeStyle=orthogonalEdgeStyle;rounded=0;orthogonalLoop=1;jettySize=auto;html=1;entryX=0;entryY=0.5;entryDx=0;entryDy=0;exitX=1;exitY=0.5;exitDx=0;exitDy=0;" parent="1" source="SRQfMVWUsRB8W6Q9aUgF-22" target="SRQfMVWUsRB8W6Q9aUgF-70" edge="1">
          <mxGeometry relative="1" as="geometry">
            <Array as="points">
              <mxPoint x="900" y="561" />
              <mxPoint x="900" y="-68" />
            </Array>
            <mxPoint x="800" y="587" as="sourcePoint" />
          </mxGeometry>
        </mxCell>
        <mxCell id="SRQfMVWUsRB8W6Q9aUgF-80" value="1" style="text;html=1;align=center;verticalAlign=middle;resizable=0;points=[];autosize=1;strokeColor=none;fillColor=none;" parent="1" vertex="1">
          <mxGeometry x="1130" y="-67" width="30" height="30" as="geometry" />
        </mxCell>
        <mxCell id="SRQfMVWUsRB8W6Q9aUgF-81" style="edgeStyle=orthogonalEdgeStyle;rounded=0;orthogonalLoop=1;jettySize=auto;html=1;dashed=1;endArrow=open;endFill=0;exitX=1;exitY=0;exitDx=0;exitDy=0;" parent="1" source="SRQfMVWUsRB8W6Q9aUgF-1" target="SRQfMVWUsRB8W6Q9aUgF-65" edge="1">
          <mxGeometry relative="1" as="geometry">
            <mxPoint x="800" y="658" as="sourcePoint" />
          </mxGeometry>
        </mxCell>
        <mxCell id="SRQfMVWUsRB8W6Q9aUgF-82" value="hosted at" style="edgeLabel;html=1;align=center;verticalAlign=middle;resizable=0;points=[];" parent="SRQfMVWUsRB8W6Q9aUgF-81" vertex="1" connectable="0">
          <mxGeometry x="-0.0021" y="1" relative="1" as="geometry">
            <mxPoint as="offset" />
          </mxGeometry>
        </mxCell>
        <mxCell id="SRQfMVWUsRB8W6Q9aUgF-164" style="edgeStyle=orthogonalEdgeStyle;rounded=0;orthogonalLoop=1;jettySize=auto;html=1;entryX=1;entryY=0.5;entryDx=0;entryDy=0;exitX=1;exitY=0.5;exitDx=0;exitDy=0;dashed=1;endArrow=open;endFill=0;" parent="1" source="SRQfMVWUsRB8W6Q9aUgF-85" target="SRQfMVWUsRB8W6Q9aUgF-148" edge="1">
          <mxGeometry relative="1" as="geometry">
            <Array as="points">
              <mxPoint x="2140" y="441" />
              <mxPoint x="2140" y="1412" />
            </Array>
          </mxGeometry>
        </mxCell>
        <mxCell id="SRQfMVWUsRB8W6Q9aUgF-83" value="&amp;lt;&amp;lt;entity&amp;gt;&amp;gt;&lt;div&gt;GuestList&lt;/div&gt;" style="swimlane;html=1;fontStyle=1;align=center;verticalAlign=top;childLayout=stackLayout;horizontal=1;startSize=40;horizontalStack=0;resizeParent=1;resizeLast=0;collapsible=1;marginBottom=0;swimlaneFillColor=#ffffff;rounded=0;shadow=0;comic=0;labelBackgroundColor=none;strokeWidth=1;fillColor=#dae8fc;fontFamily=Verdana;fontSize=12;strokeColor=#6c8ebf;" parent="1" vertex="1">
          <mxGeometry x="1170" y="362" width="310" height="128" as="geometry" />
        </mxCell>
        <mxCell id="SRQfMVWUsRB8W6Q9aUgF-84" value="~ id: GuestListId" style="text;html=1;strokeColor=#6c8ebf;fillColor=#dae8fc;align=left;verticalAlign=top;spacingLeft=4;spacingRight=4;whiteSpace=wrap;overflow=hidden;rotatable=0;points=[[0,0.5],[1,0.5]];portConstraint=eastwest;" parent="SRQfMVWUsRB8W6Q9aUgF-83" vertex="1">
          <mxGeometry y="40" width="310" height="26" as="geometry" />
        </mxCell>
        <mxCell id="SRQfMVWUsRB8W6Q9aUgF-85" value="- numberOfGuests: int" style="text;html=1;strokeColor=#6c8ebf;fillColor=#dae8fc;align=left;verticalAlign=top;spacingLeft=4;spacingRight=4;whiteSpace=wrap;overflow=hidden;rotatable=0;points=[[0,0.5],[1,0.5]];portConstraint=eastwest;" parent="SRQfMVWUsRB8W6Q9aUgF-83" vertex="1">
          <mxGeometry y="66" width="310" height="26" as="geometry" />
        </mxCell>
        <mxCell id="SRQfMVWUsRB8W6Q9aUgF-86" value="" style="line;html=1;strokeWidth=1;fillColor=none;align=left;verticalAlign=middle;spacingTop=-1;spacingLeft=3;spacingRight=3;rotatable=0;labelPosition=right;points=[];portConstraint=eastwest;" parent="SRQfMVWUsRB8W6Q9aUgF-83" vertex="1">
          <mxGeometry y="92" width="310" height="10" as="geometry" />
        </mxCell>
        <mxCell id="SRQfMVWUsRB8W6Q9aUgF-87" value="~ AssignToGuestList(guestId : GuestId) : Result&amp;lt;None&amp;gt;" style="text;html=1;strokeColor=#6c8ebf;fillColor=#dae8fc;align=left;verticalAlign=top;spacingLeft=4;spacingRight=4;whiteSpace=wrap;overflow=hidden;rotatable=0;points=[[0,0.5],[1,0.5]];portConstraint=eastwest;" parent="SRQfMVWUsRB8W6Q9aUgF-83" vertex="1">
          <mxGeometry y="102" width="310" height="26" as="geometry" />
        </mxCell>
        <mxCell id="SRQfMVWUsRB8W6Q9aUgF-88" value="&amp;lt;&amp;lt;entity&amp;gt;&amp;gt;&lt;div&gt;Invite&lt;/div&gt;" style="swimlane;html=1;fontStyle=1;align=center;verticalAlign=top;childLayout=stackLayout;horizontal=1;startSize=40;horizontalStack=0;resizeParent=1;resizeLast=0;collapsible=1;marginBottom=0;swimlaneFillColor=#ffffff;rounded=0;shadow=0;comic=0;labelBackgroundColor=none;strokeWidth=1;fillColor=#dae8fc;fontFamily=Verdana;fontSize=12;strokeColor=#6c8ebf;" parent="1" vertex="1">
          <mxGeometry x="1170" y="660" width="310" height="180" as="geometry" />
        </mxCell>
        <mxCell id="SRQfMVWUsRB8W6Q9aUgF-89" value="~ inviteId: InviteId" style="text;html=1;strokeColor=#6c8ebf;fillColor=#dae8fc;align=left;verticalAlign=top;spacingLeft=4;spacingRight=4;whiteSpace=wrap;overflow=hidden;rotatable=0;points=[[0,0.5],[1,0.5]];portConstraint=eastwest;" parent="SRQfMVWUsRB8W6Q9aUgF-88" vertex="1">
          <mxGeometry y="40" width="310" height="26" as="geometry" />
        </mxCell>
        <mxCell id="SRQfMVWUsRB8W6Q9aUgF-90" value="- inviteStatus : InviteStatus" style="text;html=1;strokeColor=#6c8ebf;fillColor=#dae8fc;align=left;verticalAlign=top;spacingLeft=4;spacingRight=4;whiteSpace=wrap;overflow=hidden;rotatable=0;points=[[0,0.5],[1,0.5]];portConstraint=eastwest;" parent="SRQfMVWUsRB8W6Q9aUgF-88" vertex="1">
          <mxGeometry y="66" width="310" height="26" as="geometry" />
        </mxCell>
        <mxCell id="SRQfMVWUsRB8W6Q9aUgF-91" value="" style="line;html=1;strokeWidth=1;fillColor=none;align=left;verticalAlign=middle;spacingTop=-1;spacingLeft=3;spacingRight=3;rotatable=0;labelPosition=right;points=[];portConstraint=eastwest;" parent="SRQfMVWUsRB8W6Q9aUgF-88" vertex="1">
          <mxGeometry y="92" width="310" height="10" as="geometry" />
        </mxCell>
        <mxCell id="SRQfMVWUsRB8W6Q9aUgF-92" value="~ AssignToInvite(guestId : GuestId) : Result&amp;lt;None&amp;gt;" style="text;html=1;strokeColor=#6c8ebf;fillColor=#dae8fc;align=left;verticalAlign=top;spacingLeft=4;spacingRight=4;whiteSpace=wrap;overflow=hidden;rotatable=0;points=[[0,0.5],[1,0.5]];portConstraint=eastwest;" parent="SRQfMVWUsRB8W6Q9aUgF-88" vertex="1">
          <mxGeometry y="102" width="310" height="26" as="geometry" />
        </mxCell>
        <mxCell id="SRQfMVWUsRB8W6Q9aUgF-93" value="~ AcceptInvite(inviteId : InviteId) : Result&amp;lt;None&amp;gt;" style="text;html=1;strokeColor=#6c8ebf;fillColor=#dae8fc;align=left;verticalAlign=top;spacingLeft=4;spacingRight=4;whiteSpace=wrap;overflow=hidden;rotatable=0;points=[[0,0.5],[1,0.5]];portConstraint=eastwest;" parent="SRQfMVWUsRB8W6Q9aUgF-88" vertex="1">
          <mxGeometry y="128" width="310" height="26" as="geometry" />
        </mxCell>
        <mxCell id="SRQfMVWUsRB8W6Q9aUgF-101" value="~ RejectInvite(inviteId : InviteId) : Result&amp;lt;None&amp;gt;" style="text;html=1;strokeColor=#6c8ebf;fillColor=#dae8fc;align=left;verticalAlign=top;spacingLeft=4;spacingRight=4;whiteSpace=wrap;overflow=hidden;rotatable=0;points=[[0,0.5],[1,0.5]];portConstraint=eastwest;" parent="SRQfMVWUsRB8W6Q9aUgF-88" vertex="1">
          <mxGeometry y="154" width="310" height="26" as="geometry" />
        </mxCell>
        <mxCell id="SRQfMVWUsRB8W6Q9aUgF-94" value="&amp;lt;&amp;lt;entity&amp;gt;&amp;gt;&lt;div&gt;Request&lt;/div&gt;" style="swimlane;html=1;fontStyle=1;align=center;verticalAlign=top;childLayout=stackLayout;horizontal=1;startSize=40;horizontalStack=0;resizeParent=1;resizeLast=0;collapsible=1;marginBottom=0;swimlaneFillColor=#ffffff;rounded=0;shadow=0;comic=0;labelBackgroundColor=none;strokeWidth=1;fillColor=#dae8fc;fontFamily=Verdana;fontSize=12;strokeColor=#6c8ebf;" parent="1" vertex="1">
          <mxGeometry x="1170" y="920" width="330" height="206" as="geometry" />
        </mxCell>
        <mxCell id="SRQfMVWUsRB8W6Q9aUgF-95" value="~ requestId : RequestId" style="text;html=1;strokeColor=#6c8ebf;fillColor=#dae8fc;align=left;verticalAlign=top;spacingLeft=4;spacingRight=4;whiteSpace=wrap;overflow=hidden;rotatable=0;points=[[0,0.5],[1,0.5]];portConstraint=eastwest;" parent="SRQfMVWUsRB8W6Q9aUgF-94" vertex="1">
          <mxGeometry y="40" width="330" height="26" as="geometry" />
        </mxCell>
        <mxCell id="SRQfMVWUsRB8W6Q9aUgF-96" value="- reason : string" style="text;html=1;strokeColor=#6c8ebf;fillColor=#dae8fc;align=left;verticalAlign=top;spacingLeft=4;spacingRight=4;whiteSpace=wrap;overflow=hidden;rotatable=0;points=[[0,0.5],[1,0.5]];portConstraint=eastwest;" parent="SRQfMVWUsRB8W6Q9aUgF-94" vertex="1">
          <mxGeometry y="66" width="330" height="26" as="geometry" />
        </mxCell>
        <mxCell id="SRQfMVWUsRB8W6Q9aUgF-97" value="- requestStatus : RequestStatus" style="text;html=1;strokeColor=#6c8ebf;fillColor=#dae8fc;align=left;verticalAlign=top;spacingLeft=4;spacingRight=4;whiteSpace=wrap;overflow=hidden;rotatable=0;points=[[0,0.5],[1,0.5]];portConstraint=eastwest;" parent="SRQfMVWUsRB8W6Q9aUgF-94" vertex="1">
          <mxGeometry y="92" width="330" height="26" as="geometry" />
        </mxCell>
        <mxCell id="SRQfMVWUsRB8W6Q9aUgF-98" value="" style="line;html=1;strokeWidth=1;fillColor=none;align=left;verticalAlign=middle;spacingTop=-1;spacingLeft=3;spacingRight=3;rotatable=0;labelPosition=right;points=[];portConstraint=eastwest;" parent="SRQfMVWUsRB8W6Q9aUgF-94" vertex="1">
          <mxGeometry y="118" width="330" height="10" as="geometry" />
        </mxCell>
        <mxCell id="SRQfMVWUsRB8W6Q9aUgF-99" value="~ AssignToRequest(guestId : GuestId) : Result&amp;lt;None&amp;gt;" style="text;html=1;strokeColor=#6c8ebf;fillColor=#dae8fc;align=left;verticalAlign=top;spacingLeft=4;spacingRight=4;whiteSpace=wrap;overflow=hidden;rotatable=0;points=[[0,0.5],[1,0.5]];portConstraint=eastwest;" parent="SRQfMVWUsRB8W6Q9aUgF-94" vertex="1">
          <mxGeometry y="128" width="330" height="26" as="geometry" />
        </mxCell>
        <mxCell id="SRQfMVWUsRB8W6Q9aUgF-100" value="~ AcceptRequest(requestId : RequestId) : Result&amp;lt;None&amp;gt;" style="text;html=1;strokeColor=#6c8ebf;fillColor=#dae8fc;align=left;verticalAlign=top;spacingLeft=4;spacingRight=4;whiteSpace=wrap;overflow=hidden;rotatable=0;points=[[0,0.5],[1,0.5]];portConstraint=eastwest;" parent="SRQfMVWUsRB8W6Q9aUgF-94" vertex="1">
          <mxGeometry y="154" width="330" height="26" as="geometry" />
        </mxCell>
        <mxCell id="SRQfMVWUsRB8W6Q9aUgF-134" value="~ RejectRequest(requestId : RequestId) : Result&amp;lt;None&amp;gt;" style="text;html=1;strokeColor=#6c8ebf;fillColor=#dae8fc;align=left;verticalAlign=top;spacingLeft=4;spacingRight=4;whiteSpace=wrap;overflow=hidden;rotatable=0;points=[[0,0.5],[1,0.5]];portConstraint=eastwest;" parent="SRQfMVWUsRB8W6Q9aUgF-94" vertex="1">
          <mxGeometry y="180" width="330" height="26" as="geometry" />
        </mxCell>
        <mxCell id="SRQfMVWUsRB8W6Q9aUgF-102" value="&amp;lt;&amp;lt;value&amp;gt;&amp;gt;&lt;div&gt;GuestListId&lt;/div&gt;" style="swimlane;html=1;fontStyle=1;align=center;verticalAlign=top;childLayout=stackLayout;horizontal=1;startSize=37;horizontalStack=0;resizeParent=1;resizeLast=0;collapsible=1;marginBottom=0;swimlaneFillColor=#ffffff;rounded=0;shadow=0;comic=0;labelBackgroundColor=none;strokeWidth=1;fontFamily=Verdana;fontSize=12;fillColor=#fff2cc;strokeColor=#d6b656;" parent="1" vertex="1">
          <mxGeometry x="1650" y="350" width="160" height="63" as="geometry" />
        </mxCell>
        <mxCell id="SRQfMVWUsRB8W6Q9aUgF-103" value="+ Value: Guid" style="text;html=1;strokeColor=#d6b656;fillColor=#fff2cc;align=left;verticalAlign=top;spacingLeft=4;spacingRight=4;whiteSpace=wrap;overflow=hidden;rotatable=0;points=[[0,0.5],[1,0.5]];portConstraint=eastwest;" parent="SRQfMVWUsRB8W6Q9aUgF-102" vertex="1">
          <mxGeometry y="37" width="160" height="26" as="geometry" />
        </mxCell>
        <mxCell id="SRQfMVWUsRB8W6Q9aUgF-104" style="edgeStyle=orthogonalEdgeStyle;rounded=0;orthogonalLoop=1;jettySize=auto;html=1;" parent="1" source="SRQfMVWUsRB8W6Q9aUgF-84" target="SRQfMVWUsRB8W6Q9aUgF-102" edge="1">
          <mxGeometry relative="1" as="geometry" />
        </mxCell>
        <mxCell id="SRQfMVWUsRB8W6Q9aUgF-105" value="1" style="text;html=1;align=center;verticalAlign=middle;resizable=0;points=[];autosize=1;strokeColor=none;fillColor=none;" parent="1" vertex="1">
          <mxGeometry x="1620" y="350" width="30" height="30" as="geometry" />
        </mxCell>
        <mxCell id="SRQfMVWUsRB8W6Q9aUgF-116" style="edgeStyle=orthogonalEdgeStyle;rounded=0;orthogonalLoop=1;jettySize=auto;html=1;" parent="1" source="SRQfMVWUsRB8W6Q9aUgF-106" target="SRQfMVWUsRB8W6Q9aUgF-108" edge="1">
          <mxGeometry relative="1" as="geometry" />
        </mxCell>
        <mxCell id="SRQfMVWUsRB8W6Q9aUgF-106" value="&amp;lt;&amp;lt;value&amp;gt;&amp;gt;&lt;div&gt;InviteStatus&lt;/div&gt;" style="swimlane;html=1;fontStyle=1;align=center;verticalAlign=top;childLayout=stackLayout;horizontal=1;startSize=37;horizontalStack=0;resizeParent=1;resizeLast=0;collapsible=1;marginBottom=0;swimlaneFillColor=#ffffff;rounded=0;shadow=0;comic=0;labelBackgroundColor=none;strokeWidth=1;fontFamily=Verdana;fontSize=12;fillColor=#fff2cc;strokeColor=#d6b656;" parent="1" vertex="1">
          <mxGeometry x="1650" y="752" width="160" height="63" as="geometry" />
        </mxCell>
        <mxCell id="SRQfMVWUsRB8W6Q9aUgF-107" value="+ Enumeration: enumStatus" style="text;html=1;strokeColor=#d6b656;fillColor=#fff2cc;align=left;verticalAlign=top;spacingLeft=4;spacingRight=4;whiteSpace=wrap;overflow=hidden;rotatable=0;points=[[0,0.5],[1,0.5]];portConstraint=eastwest;" parent="SRQfMVWUsRB8W6Q9aUgF-106" vertex="1">
          <mxGeometry y="37" width="160" height="26" as="geometry" />
        </mxCell>
        <mxCell id="SRQfMVWUsRB8W6Q9aUgF-108" value="&amp;lt;&amp;lt;enum&amp;gt;&amp;gt;&lt;div&gt;EnumVisibility&lt;/div&gt;" style="swimlane;html=1;fontStyle=1;align=center;verticalAlign=top;childLayout=stackLayout;horizontal=1;startSize=37;horizontalStack=0;resizeParent=1;resizeLast=0;collapsible=1;marginBottom=0;swimlaneFillColor=#ffffff;rounded=0;shadow=0;comic=0;labelBackgroundColor=none;strokeWidth=1;fontFamily=Verdana;fontSize=12;fillColor=#e1d5e7;strokeColor=#9673a6;" parent="1" vertex="1">
          <mxGeometry x="1920" y="726" width="160" height="115" as="geometry" />
        </mxCell>
        <mxCell id="SRQfMVWUsRB8W6Q9aUgF-109" value="+ ACCEPTED" style="text;html=1;strokeColor=#9673a6;fillColor=#e1d5e7;align=left;verticalAlign=top;spacingLeft=4;spacingRight=4;whiteSpace=wrap;overflow=hidden;rotatable=0;points=[[0,0.5],[1,0.5]];portConstraint=eastwest;" parent="SRQfMVWUsRB8W6Q9aUgF-108" vertex="1">
          <mxGeometry y="37" width="160" height="26" as="geometry" />
        </mxCell>
        <mxCell id="SRQfMVWUsRB8W6Q9aUgF-110" value="+ REJECTED" style="text;html=1;strokeColor=#9673a6;fillColor=#e1d5e7;align=left;verticalAlign=top;spacingLeft=4;spacingRight=4;whiteSpace=wrap;overflow=hidden;rotatable=0;points=[[0,0.5],[1,0.5]];portConstraint=eastwest;" parent="SRQfMVWUsRB8W6Q9aUgF-108" vertex="1">
          <mxGeometry y="63" width="160" height="26" as="geometry" />
        </mxCell>
        <mxCell id="SRQfMVWUsRB8W6Q9aUgF-111" value="+ EXTENDED" style="text;html=1;strokeColor=#9673a6;fillColor=#e1d5e7;align=left;verticalAlign=top;spacingLeft=4;spacingRight=4;whiteSpace=wrap;overflow=hidden;rotatable=0;points=[[0,0.5],[1,0.5]];portConstraint=eastwest;" parent="SRQfMVWUsRB8W6Q9aUgF-108" vertex="1">
          <mxGeometry y="89" width="160" height="26" as="geometry" />
        </mxCell>
        <mxCell id="SRQfMVWUsRB8W6Q9aUgF-112" value="&amp;lt;&amp;lt;value&amp;gt;&amp;gt;&lt;div&gt;InviteId&lt;/div&gt;" style="swimlane;html=1;fontStyle=1;align=center;verticalAlign=top;childLayout=stackLayout;horizontal=1;startSize=37;horizontalStack=0;resizeParent=1;resizeLast=0;collapsible=1;marginBottom=0;swimlaneFillColor=#ffffff;rounded=0;shadow=0;comic=0;labelBackgroundColor=none;strokeWidth=1;fontFamily=Verdana;fontSize=12;fillColor=#fff2cc;strokeColor=#d6b656;" parent="1" vertex="1">
          <mxGeometry x="1650" y="663" width="160" height="63" as="geometry" />
        </mxCell>
        <mxCell id="SRQfMVWUsRB8W6Q9aUgF-113" value="+ Value: Guid" style="text;html=1;strokeColor=#d6b656;fillColor=#fff2cc;align=left;verticalAlign=top;spacingLeft=4;spacingRight=4;whiteSpace=wrap;overflow=hidden;rotatable=0;points=[[0,0.5],[1,0.5]];portConstraint=eastwest;" parent="SRQfMVWUsRB8W6Q9aUgF-112" vertex="1">
          <mxGeometry y="37" width="160" height="26" as="geometry" />
        </mxCell>
        <mxCell id="SRQfMVWUsRB8W6Q9aUgF-114" style="edgeStyle=orthogonalEdgeStyle;rounded=0;orthogonalLoop=1;jettySize=auto;html=1;" parent="1" source="SRQfMVWUsRB8W6Q9aUgF-89" target="SRQfMVWUsRB8W6Q9aUgF-112" edge="1">
          <mxGeometry relative="1" as="geometry" />
        </mxCell>
        <mxCell id="SRQfMVWUsRB8W6Q9aUgF-115" style="edgeStyle=orthogonalEdgeStyle;rounded=0;orthogonalLoop=1;jettySize=auto;html=1;" parent="1" source="SRQfMVWUsRB8W6Q9aUgF-90" target="SRQfMVWUsRB8W6Q9aUgF-106" edge="1">
          <mxGeometry relative="1" as="geometry" />
        </mxCell>
        <mxCell id="SRQfMVWUsRB8W6Q9aUgF-117" value="1" style="text;html=1;align=center;verticalAlign=middle;resizable=0;points=[];autosize=1;strokeColor=none;fillColor=none;" parent="1" vertex="1">
          <mxGeometry x="1620" y="664" width="30" height="30" as="geometry" />
        </mxCell>
        <mxCell id="SRQfMVWUsRB8W6Q9aUgF-118" value="1" style="text;html=1;align=center;verticalAlign=middle;resizable=0;points=[];autosize=1;strokeColor=none;fillColor=none;" parent="1" vertex="1">
          <mxGeometry x="1620" y="752" width="30" height="30" as="geometry" />
        </mxCell>
        <mxCell id="SRQfMVWUsRB8W6Q9aUgF-119" value="1" style="text;html=1;align=center;verticalAlign=middle;resizable=0;points=[];autosize=1;strokeColor=none;fillColor=none;" parent="1" vertex="1">
          <mxGeometry x="1890" y="748" width="30" height="30" as="geometry" />
        </mxCell>
        <mxCell id="SRQfMVWUsRB8W6Q9aUgF-130" style="edgeStyle=orthogonalEdgeStyle;rounded=0;orthogonalLoop=1;jettySize=auto;html=1;" parent="1" source="SRQfMVWUsRB8W6Q9aUgF-120" target="SRQfMVWUsRB8W6Q9aUgF-122" edge="1">
          <mxGeometry relative="1" as="geometry" />
        </mxCell>
        <mxCell id="SRQfMVWUsRB8W6Q9aUgF-120" value="&amp;lt;&amp;lt;value&amp;gt;&amp;gt;&lt;div&gt;RequestStatus&lt;/div&gt;" style="swimlane;html=1;fontStyle=1;align=center;verticalAlign=top;childLayout=stackLayout;horizontal=1;startSize=37;horizontalStack=0;resizeParent=1;resizeLast=0;collapsible=1;marginBottom=0;swimlaneFillColor=#ffffff;rounded=0;shadow=0;comic=0;labelBackgroundColor=none;strokeWidth=1;fontFamily=Verdana;fontSize=12;fillColor=#fff2cc;strokeColor=#d6b656;" parent="1" vertex="1">
          <mxGeometry x="1650" y="1021" width="160" height="63" as="geometry" />
        </mxCell>
        <mxCell id="SRQfMVWUsRB8W6Q9aUgF-121" value="+ Enumeration: enumStatus" style="text;html=1;strokeColor=#d6b656;fillColor=#fff2cc;align=left;verticalAlign=top;spacingLeft=4;spacingRight=4;whiteSpace=wrap;overflow=hidden;rotatable=0;points=[[0,0.5],[1,0.5]];portConstraint=eastwest;" parent="SRQfMVWUsRB8W6Q9aUgF-120" vertex="1">
          <mxGeometry y="37" width="160" height="26" as="geometry" />
        </mxCell>
        <mxCell id="SRQfMVWUsRB8W6Q9aUgF-122" value="&amp;lt;&amp;lt;enum&amp;gt;&amp;gt;&lt;div&gt;EnumVisibility&lt;/div&gt;" style="swimlane;html=1;fontStyle=1;align=center;verticalAlign=top;childLayout=stackLayout;horizontal=1;startSize=37;horizontalStack=0;resizeParent=1;resizeLast=0;collapsible=1;marginBottom=0;swimlaneFillColor=#ffffff;rounded=0;shadow=0;comic=0;labelBackgroundColor=none;strokeWidth=1;fontFamily=Verdana;fontSize=12;fillColor=#e1d5e7;strokeColor=#9673a6;" parent="1" vertex="1">
          <mxGeometry x="1920" y="995" width="160" height="115" as="geometry" />
        </mxCell>
        <mxCell id="SRQfMVWUsRB8W6Q9aUgF-123" value="+ ACCEPTED" style="text;html=1;strokeColor=#9673a6;fillColor=#e1d5e7;align=left;verticalAlign=top;spacingLeft=4;spacingRight=4;whiteSpace=wrap;overflow=hidden;rotatable=0;points=[[0,0.5],[1,0.5]];portConstraint=eastwest;" parent="SRQfMVWUsRB8W6Q9aUgF-122" vertex="1">
          <mxGeometry y="37" width="160" height="26" as="geometry" />
        </mxCell>
        <mxCell id="SRQfMVWUsRB8W6Q9aUgF-124" value="+ REJECTED" style="text;html=1;strokeColor=#9673a6;fillColor=#e1d5e7;align=left;verticalAlign=top;spacingLeft=4;spacingRight=4;whiteSpace=wrap;overflow=hidden;rotatable=0;points=[[0,0.5],[1,0.5]];portConstraint=eastwest;" parent="SRQfMVWUsRB8W6Q9aUgF-122" vertex="1">
          <mxGeometry y="63" width="160" height="26" as="geometry" />
        </mxCell>
        <mxCell id="SRQfMVWUsRB8W6Q9aUgF-125" value="+ PENDING" style="text;html=1;strokeColor=#9673a6;fillColor=#e1d5e7;align=left;verticalAlign=top;spacingLeft=4;spacingRight=4;whiteSpace=wrap;overflow=hidden;rotatable=0;points=[[0,0.5],[1,0.5]];portConstraint=eastwest;" parent="SRQfMVWUsRB8W6Q9aUgF-122" vertex="1">
          <mxGeometry y="89" width="160" height="26" as="geometry" />
        </mxCell>
        <mxCell id="SRQfMVWUsRB8W6Q9aUgF-126" value="&amp;lt;&amp;lt;value&amp;gt;&amp;gt;&lt;div&gt;RequestId&lt;/div&gt;" style="swimlane;html=1;fontStyle=1;align=center;verticalAlign=top;childLayout=stackLayout;horizontal=1;startSize=37;horizontalStack=0;resizeParent=1;resizeLast=0;collapsible=1;marginBottom=0;swimlaneFillColor=#ffffff;rounded=0;shadow=0;comic=0;labelBackgroundColor=none;strokeWidth=1;fontFamily=Verdana;fontSize=12;fillColor=#fff2cc;strokeColor=#d6b656;" parent="1" vertex="1">
          <mxGeometry x="1650" y="930" width="160" height="63" as="geometry" />
        </mxCell>
        <mxCell id="SRQfMVWUsRB8W6Q9aUgF-127" value="+ Value: Guid" style="text;html=1;strokeColor=#d6b656;fillColor=#fff2cc;align=left;verticalAlign=top;spacingLeft=4;spacingRight=4;whiteSpace=wrap;overflow=hidden;rotatable=0;points=[[0,0.5],[1,0.5]];portConstraint=eastwest;" parent="SRQfMVWUsRB8W6Q9aUgF-126" vertex="1">
          <mxGeometry y="37" width="160" height="26" as="geometry" />
        </mxCell>
        <mxCell id="SRQfMVWUsRB8W6Q9aUgF-128" style="edgeStyle=orthogonalEdgeStyle;rounded=0;orthogonalLoop=1;jettySize=auto;html=1;" parent="1" source="SRQfMVWUsRB8W6Q9aUgF-95" target="SRQfMVWUsRB8W6Q9aUgF-126" edge="1">
          <mxGeometry relative="1" as="geometry" />
        </mxCell>
        <mxCell id="SRQfMVWUsRB8W6Q9aUgF-129" style="edgeStyle=orthogonalEdgeStyle;rounded=0;orthogonalLoop=1;jettySize=auto;html=1;" parent="1" source="SRQfMVWUsRB8W6Q9aUgF-97" target="SRQfMVWUsRB8W6Q9aUgF-120" edge="1">
          <mxGeometry relative="1" as="geometry" />
        </mxCell>
        <mxCell id="SRQfMVWUsRB8W6Q9aUgF-131" value="1" style="text;html=1;align=center;verticalAlign=middle;resizable=0;points=[];autosize=1;strokeColor=none;fillColor=none;" parent="1" vertex="1">
          <mxGeometry x="1890" y="1021" width="30" height="30" as="geometry" />
        </mxCell>
        <mxCell id="SRQfMVWUsRB8W6Q9aUgF-132" value="1" style="text;html=1;align=center;verticalAlign=middle;resizable=0;points=[];autosize=1;strokeColor=none;fillColor=none;" parent="1" vertex="1">
          <mxGeometry x="1620" y="930" width="30" height="30" as="geometry" />
        </mxCell>
        <mxCell id="SRQfMVWUsRB8W6Q9aUgF-133" value="1" style="text;html=1;align=center;verticalAlign=middle;resizable=0;points=[];autosize=1;strokeColor=none;fillColor=none;" parent="1" vertex="1">
          <mxGeometry x="1620" y="1021" width="30" height="30" as="geometry" />
        </mxCell>
        <mxCell id="SRQfMVWUsRB8W6Q9aUgF-135" style="edgeStyle=orthogonalEdgeStyle;rounded=0;orthogonalLoop=1;jettySize=auto;html=1;entryX=0;entryY=0.5;entryDx=0;entryDy=0;startArrow=diamondThin;startFill=1;exitX=1;exitY=0.5;exitDx=0;exitDy=0;" parent="1" source="SRQfMVWUsRB8W6Q9aUgF-13" target="SRQfMVWUsRB8W6Q9aUgF-85" edge="1">
          <mxGeometry relative="1" as="geometry">
            <Array as="points">
              <mxPoint x="1020" y="632" />
              <mxPoint x="1020" y="441" />
            </Array>
            <mxPoint x="800" y="640" as="sourcePoint" />
          </mxGeometry>
        </mxCell>
        <mxCell id="SRQfMVWUsRB8W6Q9aUgF-137" value="Contains a" style="edgeLabel;html=1;align=center;verticalAlign=middle;resizable=0;points=[];" parent="SRQfMVWUsRB8W6Q9aUgF-135" vertex="1" connectable="0">
          <mxGeometry x="0.0021" y="-1" relative="1" as="geometry">
            <mxPoint y="-25" as="offset" />
          </mxGeometry>
        </mxCell>
        <mxCell id="SRQfMVWUsRB8W6Q9aUgF-138" value="1" style="text;html=1;align=center;verticalAlign=middle;resizable=0;points=[];autosize=1;strokeColor=none;fillColor=none;" parent="1" vertex="1">
          <mxGeometry x="1140" y="438" width="30" height="30" as="geometry" />
        </mxCell>
        <mxCell id="SRQfMVWUsRB8W6Q9aUgF-139" style="edgeStyle=orthogonalEdgeStyle;rounded=0;orthogonalLoop=1;jettySize=auto;html=1;entryX=0;entryY=0.5;entryDx=0;entryDy=0;startArrow=diamondThin;startFill=1;" parent="1" source="SRQfMVWUsRB8W6Q9aUgF-20" target="SRQfMVWUsRB8W6Q9aUgF-90" edge="1">
          <mxGeometry relative="1" as="geometry" />
        </mxCell>
        <mxCell id="SRQfMVWUsRB8W6Q9aUgF-140" value="Contains" style="edgeLabel;html=1;align=center;verticalAlign=middle;resizable=0;points=[];" parent="SRQfMVWUsRB8W6Q9aUgF-139" vertex="1" connectable="0">
          <mxGeometry x="0.0279" relative="1" as="geometry">
            <mxPoint as="offset" />
          </mxGeometry>
        </mxCell>
        <mxCell id="SRQfMVWUsRB8W6Q9aUgF-141" value="0..*" style="text;html=1;align=center;verticalAlign=middle;resizable=0;points=[];autosize=1;strokeColor=none;fillColor=none;" parent="1" vertex="1">
          <mxGeometry x="1130" y="710" width="40" height="30" as="geometry" />
        </mxCell>
        <mxCell id="SRQfMVWUsRB8W6Q9aUgF-142" style="edgeStyle=orthogonalEdgeStyle;rounded=0;orthogonalLoop=1;jettySize=auto;html=1;startArrow=diamondThin;startFill=1;" parent="1" source="SRQfMVWUsRB8W6Q9aUgF-21" target="SRQfMVWUsRB8W6Q9aUgF-94" edge="1">
          <mxGeometry relative="1" as="geometry" />
        </mxCell>
        <mxCell id="SRQfMVWUsRB8W6Q9aUgF-143" value="Contains" style="edgeLabel;html=1;align=center;verticalAlign=middle;resizable=0;points=[];" parent="SRQfMVWUsRB8W6Q9aUgF-142" vertex="1" connectable="0">
          <mxGeometry x="-0.009" relative="1" as="geometry">
            <mxPoint x="30" y="6" as="offset" />
          </mxGeometry>
        </mxCell>
        <mxCell id="SRQfMVWUsRB8W6Q9aUgF-144" value="0..*" style="text;html=1;align=center;verticalAlign=middle;resizable=0;points=[];autosize=1;strokeColor=none;fillColor=none;" parent="1" vertex="1">
          <mxGeometry x="1130" y="1026" width="40" height="30" as="geometry" />
        </mxCell>
        <mxCell id="SRQfMVWUsRB8W6Q9aUgF-145" value="&amp;lt;&amp;lt;aggregate&amp;gt;&amp;gt;&lt;div&gt;Guest&lt;/div&gt;" style="swimlane;html=1;fontStyle=1;align=center;verticalAlign=top;childLayout=stackLayout;horizontal=1;startSize=37;horizontalStack=0;resizeParent=1;resizeLast=0;collapsible=1;marginBottom=0;swimlaneFillColor=#ffffff;rounded=0;shadow=0;comic=0;labelBackgroundColor=none;strokeWidth=1;fillColor=#d5e8d4;fontFamily=Verdana;fontSize=12;strokeColor=#82b366;" parent="1" vertex="1">
          <mxGeometry x="1170" y="1310" width="370" height="229" as="geometry" />
        </mxCell>
        <mxCell id="SRQfMVWUsRB8W6Q9aUgF-146" value="+ id: GuestId" style="text;html=1;strokeColor=#82b366;fillColor=#d5e8d4;align=left;verticalAlign=top;spacingLeft=4;spacingRight=4;whiteSpace=wrap;overflow=hidden;rotatable=0;points=[[0,0.5],[1,0.5]];portConstraint=eastwest;" parent="SRQfMVWUsRB8W6Q9aUgF-145" vertex="1">
          <mxGeometry y="37" width="370" height="26" as="geometry" />
        </mxCell>
        <mxCell id="SRQfMVWUsRB8W6Q9aUgF-147" value="- email: ViaEmail" style="text;html=1;strokeColor=#82b366;fillColor=#d5e8d4;align=left;verticalAlign=top;spacingLeft=4;spacingRight=4;whiteSpace=wrap;overflow=hidden;rotatable=0;points=[[0,0.5],[1,0.5]];portConstraint=eastwest;" parent="SRQfMVWUsRB8W6Q9aUgF-145" vertex="1">
          <mxGeometry y="63" width="370" height="26" as="geometry" />
        </mxCell>
        <mxCell id="SRQfMVWUsRB8W6Q9aUgF-148" value="- firstName: FirstName" style="text;html=1;strokeColor=#82b366;fillColor=#d5e8d4;align=left;verticalAlign=top;spacingLeft=4;spacingRight=4;whiteSpace=wrap;overflow=hidden;rotatable=0;points=[[0,0.5],[1,0.5]];portConstraint=eastwest;" parent="SRQfMVWUsRB8W6Q9aUgF-145" vertex="1">
          <mxGeometry y="89" width="370" height="26" as="geometry" />
        </mxCell>
        <mxCell id="ylInrJHUirPpH4VAvl4U-1" value="- lastName: LastName" style="text;html=1;strokeColor=#82b366;fillColor=#d5e8d4;align=left;verticalAlign=top;spacingLeft=4;spacingRight=4;whiteSpace=wrap;overflow=hidden;rotatable=0;points=[[0,0.5],[1,0.5]];portConstraint=eastwest;" parent="SRQfMVWUsRB8W6Q9aUgF-145" vertex="1">
          <mxGeometry y="115" width="370" height="26" as="geometry" />
        </mxCell>
        <mxCell id="SRQfMVWUsRB8W6Q9aUgF-149" value="" style="line;html=1;strokeWidth=1;fillColor=none;align=left;verticalAlign=middle;spacingTop=-1;spacingLeft=3;spacingRight=3;rotatable=0;labelPosition=right;points=[];portConstraint=eastwest;" parent="SRQfMVWUsRB8W6Q9aUgF-145" vertex="1">
          <mxGeometry y="141" width="370" height="10" as="geometry" />
        </mxCell>
        <mxCell id="SRQfMVWUsRB8W6Q9aUgF-150" value="+ UpdateViaEmail(viaEmail : ViaEmail) : Result&amp;lt;None&amp;gt;" style="text;html=1;strokeColor=#82b366;fillColor=#d5e8d4;align=left;verticalAlign=top;spacingLeft=4;spacingRight=4;whiteSpace=wrap;overflow=hidden;rotatable=0;points=[[0,0.5],[1,0.5]];portConstraint=eastwest;" parent="SRQfMVWUsRB8W6Q9aUgF-145" vertex="1">
          <mxGeometry y="151" width="370" height="26" as="geometry" />
        </mxCell>
        <mxCell id="SRQfMVWUsRB8W6Q9aUgF-151" value="+ UpdateFirstName(newName : FirstName) : Result&amp;lt;None&amp;gt;" style="text;html=1;strokeColor=#82b366;fillColor=#d5e8d4;align=left;verticalAlign=top;spacingLeft=4;spacingRight=4;whiteSpace=wrap;overflow=hidden;rotatable=0;points=[[0,0.5],[1,0.5]];portConstraint=eastwest;" parent="SRQfMVWUsRB8W6Q9aUgF-145" vertex="1">
          <mxGeometry y="177" width="370" height="26" as="geometry" />
        </mxCell>
        <mxCell id="vRcmteakU44PHt9Sq_kg-1" value="+ UpdateLastName(newName : LastName) : Result&amp;lt;None&amp;gt;" style="text;html=1;strokeColor=#82b366;fillColor=#d5e8d4;align=left;verticalAlign=top;spacingLeft=4;spacingRight=4;whiteSpace=wrap;overflow=hidden;rotatable=0;points=[[0,0.5],[1,0.5]];portConstraint=eastwest;" parent="SRQfMVWUsRB8W6Q9aUgF-145" vertex="1">
          <mxGeometry y="203" width="370" height="26" as="geometry" />
        </mxCell>
        <mxCell id="SRQfMVWUsRB8W6Q9aUgF-152" value="&amp;lt;&amp;lt;value&amp;gt;&amp;gt;&lt;div&gt;GuestId&lt;/div&gt;" style="swimlane;html=1;fontStyle=1;align=center;verticalAlign=top;childLayout=stackLayout;horizontal=1;startSize=37;horizontalStack=0;resizeParent=1;resizeLast=0;collapsible=1;marginBottom=0;swimlaneFillColor=#ffffff;rounded=0;shadow=0;comic=0;labelBackgroundColor=none;strokeWidth=1;fontFamily=Verdana;fontSize=12;fillColor=#fff2cc;strokeColor=#d6b656;" parent="1" vertex="1">
          <mxGeometry x="880" y="1279.75" width="160" height="63" as="geometry" />
        </mxCell>
        <mxCell id="SRQfMVWUsRB8W6Q9aUgF-153" value="+ Value: Guid" style="text;html=1;strokeColor=#d6b656;fillColor=#fff2cc;align=left;verticalAlign=top;spacingLeft=4;spacingRight=4;whiteSpace=wrap;overflow=hidden;rotatable=0;points=[[0,0.5],[1,0.5]];portConstraint=eastwest;" parent="SRQfMVWUsRB8W6Q9aUgF-152" vertex="1">
          <mxGeometry y="37" width="160" height="26" as="geometry" />
        </mxCell>
        <mxCell id="SRQfMVWUsRB8W6Q9aUgF-154" value="&amp;lt;&amp;lt;value&amp;gt;&amp;gt;&lt;div&gt;FirstName&lt;/div&gt;" style="swimlane;html=1;fontStyle=1;align=center;verticalAlign=top;childLayout=stackLayout;horizontal=1;startSize=37;horizontalStack=0;resizeParent=1;resizeLast=0;collapsible=1;marginBottom=0;swimlaneFillColor=#ffffff;rounded=0;shadow=0;comic=0;labelBackgroundColor=none;strokeWidth=1;fontFamily=Verdana;fontSize=12;fillColor=#fff2cc;strokeColor=#d6b656;" parent="1" vertex="1">
          <mxGeometry x="880" y="1454.25" width="160" height="63" as="geometry" />
        </mxCell>
        <mxCell id="SRQfMVWUsRB8W6Q9aUgF-155" value="+ Value: string" style="text;html=1;strokeColor=#d6b656;fillColor=#fff2cc;align=left;verticalAlign=top;spacingLeft=4;spacingRight=4;whiteSpace=wrap;overflow=hidden;rotatable=0;points=[[0,0.5],[1,0.5]];portConstraint=eastwest;" parent="SRQfMVWUsRB8W6Q9aUgF-154" vertex="1">
          <mxGeometry y="37" width="160" height="26" as="geometry" />
        </mxCell>
        <mxCell id="SRQfMVWUsRB8W6Q9aUgF-156" value="&amp;lt;&amp;lt;value&amp;gt;&amp;gt;&lt;div&gt;ViaEmail&lt;/div&gt;" style="swimlane;html=1;fontStyle=1;align=center;verticalAlign=top;childLayout=stackLayout;horizontal=1;startSize=37;horizontalStack=0;resizeParent=1;resizeLast=0;collapsible=1;marginBottom=0;swimlaneFillColor=#ffffff;rounded=0;shadow=0;comic=0;labelBackgroundColor=none;strokeWidth=1;fontFamily=Verdana;fontSize=12;fillColor=#fff2cc;strokeColor=#d6b656;" parent="1" vertex="1">
          <mxGeometry x="880" y="1367.25" width="160" height="63" as="geometry" />
        </mxCell>
        <mxCell id="SRQfMVWUsRB8W6Q9aUgF-157" value="+ Value: string" style="text;html=1;strokeColor=#d6b656;fillColor=#fff2cc;align=left;verticalAlign=top;spacingLeft=4;spacingRight=4;whiteSpace=wrap;overflow=hidden;rotatable=0;points=[[0,0.5],[1,0.5]];portConstraint=eastwest;" parent="SRQfMVWUsRB8W6Q9aUgF-156" vertex="1">
          <mxGeometry y="37" width="160" height="26" as="geometry" />
        </mxCell>
        <mxCell id="SRQfMVWUsRB8W6Q9aUgF-158" style="edgeStyle=orthogonalEdgeStyle;rounded=0;orthogonalLoop=1;jettySize=auto;html=1;entryX=1;entryY=0.5;entryDx=0;entryDy=0;" parent="1" source="SRQfMVWUsRB8W6Q9aUgF-146" target="SRQfMVWUsRB8W6Q9aUgF-152" edge="1">
          <mxGeometry relative="1" as="geometry" />
        </mxCell>
        <mxCell id="SRQfMVWUsRB8W6Q9aUgF-159" style="edgeStyle=orthogonalEdgeStyle;rounded=0;orthogonalLoop=1;jettySize=auto;html=1;" parent="1" source="SRQfMVWUsRB8W6Q9aUgF-147" target="SRQfMVWUsRB8W6Q9aUgF-156" edge="1">
          <mxGeometry relative="1" as="geometry" />
        </mxCell>
        <mxCell id="SRQfMVWUsRB8W6Q9aUgF-160" style="edgeStyle=orthogonalEdgeStyle;rounded=0;orthogonalLoop=1;jettySize=auto;html=1;entryX=1;entryY=0.5;entryDx=0;entryDy=0;" parent="1" source="SRQfMVWUsRB8W6Q9aUgF-148" target="SRQfMVWUsRB8W6Q9aUgF-154" edge="1">
          <mxGeometry relative="1" as="geometry" />
        </mxCell>
        <mxCell id="SRQfMVWUsRB8W6Q9aUgF-161" value="1" style="text;html=1;align=center;verticalAlign=middle;resizable=0;points=[];autosize=1;strokeColor=none;fillColor=none;" parent="1" vertex="1">
          <mxGeometry x="1040" y="1454.25" width="30" height="30" as="geometry" />
        </mxCell>
        <mxCell id="SRQfMVWUsRB8W6Q9aUgF-162" value="1" style="text;html=1;align=center;verticalAlign=middle;resizable=0;points=[];autosize=1;strokeColor=none;fillColor=none;" parent="1" vertex="1">
          <mxGeometry x="1040" y="1367.25" width="30" height="30" as="geometry" />
        </mxCell>
        <mxCell id="SRQfMVWUsRB8W6Q9aUgF-163" value="1" style="text;html=1;align=center;verticalAlign=middle;resizable=0;points=[];autosize=1;strokeColor=none;fillColor=none;" parent="1" vertex="1">
          <mxGeometry x="1040" y="1280" width="30" height="30" as="geometry" />
        </mxCell>
        <mxCell id="SRQfMVWUsRB8W6Q9aUgF-165" value="0..*" style="text;html=1;align=center;verticalAlign=middle;resizable=0;points=[];autosize=1;strokeColor=none;fillColor=none;" parent="1" vertex="1">
          <mxGeometry x="1490" y="1380" width="40" height="30" as="geometry" />
        </mxCell>
        <mxCell id="SRQfMVWUsRB8W6Q9aUgF-166" style="edgeStyle=orthogonalEdgeStyle;rounded=0;orthogonalLoop=1;jettySize=auto;html=1;entryX=0.5;entryY=0;entryDx=0;entryDy=0;" parent="1" source="SRQfMVWUsRB8W6Q9aUgF-87" target="SRQfMVWUsRB8W6Q9aUgF-152" edge="1">
          <mxGeometry relative="1" as="geometry">
            <Array as="points">
              <mxPoint x="930" y="477" />
              <mxPoint x="930" y="1190" />
              <mxPoint x="960" y="1190" />
            </Array>
          </mxGeometry>
        </mxCell>
        <mxCell id="SRQfMVWUsRB8W6Q9aUgF-167" style="edgeStyle=orthogonalEdgeStyle;rounded=0;orthogonalLoop=1;jettySize=auto;html=1;entryX=0.5;entryY=0;entryDx=0;entryDy=0;" parent="1" source="SRQfMVWUsRB8W6Q9aUgF-92" target="SRQfMVWUsRB8W6Q9aUgF-152" edge="1">
          <mxGeometry relative="1" as="geometry">
            <Array as="points">
              <mxPoint x="930" y="775" />
              <mxPoint x="930" y="1190" />
              <mxPoint x="960" y="1190" />
            </Array>
          </mxGeometry>
        </mxCell>
        <mxCell id="SRQfMVWUsRB8W6Q9aUgF-168" style="edgeStyle=orthogonalEdgeStyle;rounded=0;orthogonalLoop=1;jettySize=auto;html=1;" parent="1" source="SRQfMVWUsRB8W6Q9aUgF-99" target="SRQfMVWUsRB8W6Q9aUgF-152" edge="1">
          <mxGeometry relative="1" as="geometry" />
        </mxCell>
        <mxCell id="SRQfMVWUsRB8W6Q9aUgF-169" value="1" style="text;html=1;align=center;verticalAlign=middle;resizable=0;points=[];autosize=1;strokeColor=none;fillColor=none;" parent="1" vertex="1">
          <mxGeometry x="960" y="1250" width="30" height="30" as="geometry" />
        </mxCell>
        <mxCell id="ylInrJHUirPpH4VAvl4U-2" value="&amp;lt;&amp;lt;value&amp;gt;&amp;gt;&lt;div&gt;LastName&lt;/div&gt;" style="swimlane;html=1;fontStyle=1;align=center;verticalAlign=top;childLayout=stackLayout;horizontal=1;startSize=37;horizontalStack=0;resizeParent=1;resizeLast=0;collapsible=1;marginBottom=0;swimlaneFillColor=#ffffff;rounded=0;shadow=0;comic=0;labelBackgroundColor=none;strokeWidth=1;fontFamily=Verdana;fontSize=12;fillColor=#fff2cc;strokeColor=#d6b656;" parent="1" vertex="1">
          <mxGeometry x="880" y="1540" width="160" height="63" as="geometry" />
        </mxCell>
        <mxCell id="ylInrJHUirPpH4VAvl4U-3" value="+ Value: string" style="text;html=1;strokeColor=#d6b656;fillColor=#fff2cc;align=left;verticalAlign=top;spacingLeft=4;spacingRight=4;whiteSpace=wrap;overflow=hidden;rotatable=0;points=[[0,0.5],[1,0.5]];portConstraint=eastwest;" parent="ylInrJHUirPpH4VAvl4U-2" vertex="1">
          <mxGeometry y="37" width="160" height="26" as="geometry" />
        </mxCell>
        <mxCell id="ylInrJHUirPpH4VAvl4U-4" style="edgeStyle=orthogonalEdgeStyle;rounded=0;orthogonalLoop=1;jettySize=auto;html=1;entryX=1;entryY=0.5;entryDx=0;entryDy=0;" parent="1" source="ylInrJHUirPpH4VAvl4U-1" target="ylInrJHUirPpH4VAvl4U-2" edge="1">
          <mxGeometry relative="1" as="geometry">
            <Array as="points">
              <mxPoint x="1130" y="1438" />
              <mxPoint x="1130" y="1572" />
            </Array>
          </mxGeometry>
        </mxCell>
        <mxCell id="ylInrJHUirPpH4VAvl4U-5" value="1" style="text;html=1;align=center;verticalAlign=middle;resizable=0;points=[];autosize=1;strokeColor=none;fillColor=none;" parent="1" vertex="1">
          <mxGeometry x="1040" y="1540" width="30" height="30" as="geometry" />
        </mxCell>
        <mxCell id="msQwvBPZaSjVuDFV_Ryw-1" value="&amp;lt;&amp;lt;value&amp;gt;&amp;gt;&lt;div&gt;EventTime&lt;/div&gt;" style="swimlane;html=1;fontStyle=1;align=center;verticalAlign=top;childLayout=stackLayout;horizontal=1;startSize=37;horizontalStack=0;resizeParent=1;resizeLast=0;collapsible=1;marginBottom=0;swimlaneFillColor=#ffffff;rounded=0;shadow=0;comic=0;labelBackgroundColor=none;strokeWidth=1;fontFamily=Verdana;fontSize=12;fillColor=#fff2cc;strokeColor=#d6b656;" vertex="1" parent="1">
          <mxGeometry x="-180" y="500" width="170" height="89" as="geometry" />
        </mxCell>
        <mxCell id="msQwvBPZaSjVuDFV_Ryw-2" value="+ StartTime: DateTime" style="text;html=1;strokeColor=#d6b656;fillColor=#fff2cc;align=left;verticalAlign=top;spacingLeft=4;spacingRight=4;whiteSpace=wrap;overflow=hidden;rotatable=0;points=[[0,0.5],[1,0.5]];portConstraint=eastwest;" vertex="1" parent="msQwvBPZaSjVuDFV_Ryw-1">
          <mxGeometry y="37" width="170" height="26" as="geometry" />
        </mxCell>
        <mxCell id="msQwvBPZaSjVuDFV_Ryw-3" value="+ EndTime: DateTime" style="text;html=1;strokeColor=#d6b656;fillColor=#fff2cc;align=left;verticalAlign=top;spacingLeft=4;spacingRight=4;whiteSpace=wrap;overflow=hidden;rotatable=0;points=[[0,0.5],[1,0.5]];portConstraint=eastwest;" vertex="1" parent="msQwvBPZaSjVuDFV_Ryw-1">
          <mxGeometry y="63" width="170" height="26" as="geometry" />
        </mxCell>
        <mxCell id="msQwvBPZaSjVuDFV_Ryw-5" style="edgeStyle=orthogonalEdgeStyle;rounded=0;orthogonalLoop=1;jettySize=auto;html=1;exitX=0;exitY=0.5;exitDx=0;exitDy=0;" edge="1" parent="1" source="SRQfMVWUsRB8W6Q9aUgF-3" target="SRQfMVWUsRB8W6Q9aUgF-37">
          <mxGeometry relative="1" as="geometry">
            <Array as="points">
              <mxPoint x="60" y="376" />
              <mxPoint x="60" y="376" />
            </Array>
          </mxGeometry>
        </mxCell>
        <mxCell id="msQwvBPZaSjVuDFV_Ryw-6" style="edgeStyle=orthogonalEdgeStyle;rounded=0;orthogonalLoop=1;jettySize=auto;html=1;exitX=0;exitY=0.5;exitDx=0;exitDy=0;" edge="1" parent="1" source="SRQfMVWUsRB8W6Q9aUgF-5" target="msQwvBPZaSjVuDFV_Ryw-2">
          <mxGeometry relative="1" as="geometry">
            <Array as="points">
              <mxPoint x="200" y="428" />
              <mxPoint x="200" y="460" />
              <mxPoint x="90" y="460" />
              <mxPoint x="90" y="550" />
            </Array>
          </mxGeometry>
        </mxCell>
        <mxCell id="msQwvBPZaSjVuDFV_Ryw-8" value="1" style="text;html=1;align=center;verticalAlign=middle;resizable=0;points=[];autosize=1;strokeColor=none;fillColor=none;" vertex="1" parent="1">
          <mxGeometry x="-10" y="520" width="30" height="30" as="geometry" />
        </mxCell>
      </root>
    </mxGraphModel>
  </diagram>
</mxfile>
